<svg width="126" height="23" viewBox="0 0 126 23" fill="none" xmlns="http://www.w3.org/2000/svg">
  <path
    d="M-0.000109553 22.4V2.28882e-05H31.9039C34.1866 2.28882e-05 35.9359 0.512023 37.1519 1.53602C38.3679 2.53869 38.9759 3.92536 38.9759 5.69602C38.9759 7.06136 38.5599 8.17069 37.7279 9.02402C36.8959 9.87736 35.5946 10.464 33.8239 10.784V11.424C35.7652 11.5947 37.2266 12.1494 38.2079 13.088C39.1892 14.0054 39.6799 15.2 39.6799 16.672V22.4H29.3119V16.992C29.3119 16.608 29.1946 16.2987 28.9599 16.064C28.7252 15.8294 28.4052 15.712 27.9999 15.712H9.91989V22.4H-0.000109553ZM9.91989 9.63202H27.3599C27.7652 9.63202 28.0852 9.50402 28.3199 9.24802C28.5546 8.99202 28.6719 8.65069 28.6719 8.22402C28.6719 7.75469 28.5439 7.40269 28.2879 7.16802C28.0319 6.93336 27.7226 6.81602 27.3599 6.81602H9.91989V9.63202ZM42.5624 22.4V2.28882e-05H57.3784L62.4024 9.69602L67.4264 2.28882e-05H82.2424V22.4H72.6424V8.64002L72.6104 8.73602L65.5064 22.4H59.2984L52.1944 8.73602L52.1624 8.64002V22.4H42.5624ZM85.9686 22.4V2.28882e-05H95.8886V14.976H125.649V22.4H85.9686Z"
    fill="black"
  />
</svg>
