<svg width="24" height="24" viewBox="0 0 24 24" fill="none" xmlns="http://www.w3.org/2000/svg" class="social__logo">
  <path
    d="M12 23.9001C18.5722 23.9001 23.9 18.5723 23.9 12.0001C23.9 5.42791 18.5722 0.100098 12 0.100098C5.42779 0.100098 0.0999756 5.42791 0.0999756 12.0001C0.0999756 18.5723 5.42779 23.9001 12 23.9001Z"
    fill="black"
  />
  <path
    d="M12 4.93994C10.084 4.93994 9.84003 4.94794 9.08804 4.98394C8.33604 5.01994 7.82403 5.13594 7.37603 5.31194C6.91203 5.49194 6.51604 5.73194 6.12404 6.12794C5.73204 6.51994 5.49203 6.91594 5.30803 7.37994C5.13203 7.82794 5.01204 8.34394 4.98004 9.09194C4.94804 9.84394 4.93604 10.0839 4.93604 12.0039C4.93604 13.9199 4.94404 14.1599 4.98004 14.9159C5.01604 15.6679 5.13203 16.1799 5.30803 16.6279C5.48803 17.0919 5.72804 17.4879 6.12404 17.8799C6.51604 18.2719 6.91203 18.5159 7.37603 18.6959C7.82403 18.8719 8.34003 18.9879 9.08804 19.0239C9.84003 19.0599 10.08 19.0679 12 19.0679C13.916 19.0679 14.156 19.0599 14.912 19.0239C15.664 18.9879 16.176 18.8719 16.628 18.6959C17.092 18.5159 17.484 18.2719 17.876 17.8799C18.268 17.4879 18.508 17.0919 18.692 16.6279C18.864 16.1799 18.984 15.6679 19.02 14.9159C19.052 14.1639 19.064 13.9239 19.064 12.0039C19.064 10.0879 19.056 9.84794 19.02 9.09194C18.984 8.33994 18.864 7.82794 18.692 7.37994C18.512 6.91594 18.268 6.51994 17.876 6.12794C17.484 5.73594 17.092 5.49594 16.624 5.31194C16.172 5.13594 15.66 5.01994 14.908 4.98394C14.156 4.94794 13.916 4.93994 12 4.93994ZM11.368 6.21194C11.556 6.21194 11.764 6.21194 12 6.21194C13.884 6.21194 14.108 6.21994 14.852 6.25194C15.54 6.28394 15.912 6.39994 16.164 6.49594C16.492 6.62394 16.728 6.77594 16.976 7.02394C17.224 7.27194 17.376 7.50794 17.504 7.83594C17.6 8.08394 17.716 8.45994 17.748 9.14794C17.78 9.89194 17.788 10.1159 17.788 11.9999C17.788 13.8839 17.78 14.1079 17.748 14.8519C17.716 15.5399 17.6 15.9119 17.504 16.1639C17.376 16.4919 17.224 16.7279 16.976 16.9759C16.728 17.2239 16.496 17.3759 16.164 17.5039C15.916 17.5999 15.54 17.7159 14.852 17.7479C14.108 17.7799 13.884 17.7879 12 17.7879C10.116 17.7879 9.89204 17.7799 9.14804 17.7479C8.46003 17.7159 8.08803 17.5999 7.83603 17.5039C7.50803 17.3759 7.27204 17.2239 7.02404 16.9759C6.77604 16.7279 6.62403 16.4919 6.49603 16.1639C6.40003 15.9159 6.28404 15.5399 6.25204 14.8519C6.22004 14.1079 6.21204 13.8839 6.21204 11.9999C6.21204 10.1159 6.22004 9.89194 6.25204 9.14794C6.28404 8.45994 6.40003 8.08794 6.49603 7.83594C6.62403 7.50794 6.77604 7.27194 7.02404 7.02394C7.27204 6.77594 7.50803 6.62394 7.83603 6.49594C8.08403 6.39994 8.46003 6.28394 9.14804 6.25194C9.80003 6.21994 10.052 6.21194 11.368 6.21194ZM15.768 7.38394C15.3 7.38394 14.92 7.76394 14.92 8.23194C14.92 8.69994 15.3 9.07994 15.768 9.07994C16.236 9.07994 16.616 8.69994 16.616 8.23194C16.616 7.76394 16.236 7.38394 15.768 7.38394ZM12 8.37594C9.99604 8.37594 8.37603 9.99994 8.37603 11.9999C8.37603 14.0039 10 15.6239 12 15.6239C14.004 15.6239 15.624 13.9999 15.624 11.9999C15.624 9.99594 14.004 8.37594 12 8.37594ZM12 9.64794C13.3 9.64794 14.352 10.6999 14.352 11.9999C14.352 13.2999 13.3 14.3519 12 14.3519C10.7 14.3519 9.64804 13.2999 9.64804 11.9999C9.64804 10.6999 10.7 9.64794 12 9.64794Z"
    fill="white"
  />
</svg>
