<svg width="24" height="24" viewBox="0 0 24 24" fill="none" xmlns="http://www.w3.org/2000/svg" class="social__logo">
  <path
    d="M18.75 0H5.25C2.35051 0 0 2.35051 0 5.25V18.75C0 21.6495 2.35051 24 5.25 24H18.75C21.6495 24 24 21.6495 24 18.75V5.25C24 2.35051 21.6495 0 18.75 0Z"
    fill="black"
  />
  <path
    d="M18.3275 6.4362C18.1962 6.36837 18.0685 6.29402 17.9447 6.21342C17.5847 5.97542 17.2546 5.695 16.9616 5.37817C16.2284 4.5393 15.9546 3.68825 15.8537 3.09242H15.8578C15.7735 2.59782 15.8084 2.27783 15.8136 2.27783H12.4743V15.1904C12.4743 15.3637 12.4743 15.5351 12.467 15.7044C12.467 15.7255 12.465 15.7449 12.4638 15.7676C12.4638 15.7769 12.4638 15.7866 12.4618 15.7964C12.4618 15.7988 12.4618 15.8012 12.4618 15.8036C12.4266 16.2669 12.278 16.7145 12.0293 17.1069C11.7805 17.4994 11.4391 17.8246 11.0351 18.0542C10.6141 18.2937 10.1379 18.4193 9.65347 18.4187C8.09762 18.4187 6.83667 17.1501 6.83667 15.5833C6.83667 14.0165 8.09762 12.7479 9.65347 12.7479C9.948 12.7476 10.2407 12.7939 10.5207 12.8852L10.5248 9.4851C9.6747 9.3753 8.81107 9.44285 7.98842 9.6835C7.16575 9.92417 6.4019 10.3327 5.74502 10.8834C5.16947 11.3834 4.6856 11.9801 4.31517 12.6466C4.1742 12.8896 3.64235 13.8662 3.57795 15.4512C3.53745 16.3509 3.80762 17.2829 3.93642 17.6681V17.6762C4.01745 17.9031 4.33137 18.6771 4.84297 19.3297C5.2555 19.8532 5.74287 20.313 6.28945 20.6944V20.6863L6.29755 20.6944C7.91415 21.7929 9.70655 21.7208 9.70655 21.7208C10.0168 21.7082 11.0562 21.7208 12.2365 21.1614C13.5457 20.5412 14.291 19.6173 14.291 19.6173C14.7672 19.0652 15.1458 18.4361 15.4106 17.7568C15.7128 16.9625 15.8136 16.0098 15.8136 15.6291V8.77867C15.8542 8.80297 16.3937 9.15982 16.3937 9.15982C16.3937 9.15982 17.171 9.65805 18.3838 9.98252C19.2538 10.2134 20.4261 10.262 20.4261 10.262V6.94697C20.0153 6.99152 19.1813 6.86192 18.3275 6.4362Z"
    fill="white"
  />
</svg>
